<svg width="22" height="22" viewBox="0 0 22 22" fill="none" xmlns="http://www.w3.org/2000/svg">
<path fill-rule="evenodd" clip-rule="evenodd" d="M10.9999 3.5104C6.86351 3.5104 3.51027 6.86364 3.51027 11.0001C3.51028 15.1365 6.86352 18.4897 10.9999 18.4897C15.1364 18.4897 18.4896 15.1365 18.4896 11.0001C18.4896 6.86364 15.1364 3.5104 10.9999 3.5104ZM10.9999 1.37049C5.68168 1.37049 1.37037 5.6818 1.37037 11.0001C1.37037 16.3183 5.68168 20.6296 10.9999 20.6296C16.3182 20.6296 20.6295 16.3183 20.6295 11.0001C20.6295 5.6818 16.3182 1.37049 10.9999 1.37049Z" fill="#DEE0E2"/>
<path fill-rule="evenodd" clip-rule="evenodd" d="M10.9999 20.2593C16.1137 20.2593 20.2592 16.1138 20.2592 11.0001C20.2592 5.88635 16.1137 1.74086 10.9999 1.74086C5.88622 1.74086 1.74074 5.88635 1.74074 11.0001C1.74074 16.1138 5.88623 20.2593 10.9999 20.2593ZM20.9999 11.0001C20.9999 16.5229 16.5228 21 10.9999 21C5.47713 21 1 16.5229 1 11.0001C1 5.47725 5.47713 1.00012 10.9999 1.00012C16.5228 1.00012 20.9999 5.47725 20.9999 11.0001ZM10.9999 18.1194C14.9318 18.1194 18.1193 14.932 18.1193 11.0001C18.1193 7.06818 14.9318 3.88077 10.9999 3.88077C7.06806 3.88077 3.88064 7.06819 3.88064 11.0001C3.88064 14.932 7.06806 18.1194 10.9999 18.1194ZM18.86 11.0001C18.86 15.341 15.3409 18.8601 10.9999 18.8601C6.65897 18.8601 3.13991 15.3411 3.13991 11.0001C3.13991 6.65909 6.65897 3.14003 10.9999 3.14003C15.3409 3.14003 18.86 6.65909 18.86 11.0001Z" fill="#DEE0E2"/>
<path fill-rule="evenodd" clip-rule="evenodd" d="M21.4999 11.0001C21.4999 16.799 16.7989 21.5 10.9999 21.5C5.20099 21.5 0.500001 16.799 0.5 11.0001C0.499999 5.20111 5.20098 0.500123 10.9999 0.500122C16.7989 0.500122 21.4999 5.20111 21.4999 11.0001ZM10.9999 19.7593C15.8375 19.7593 19.7592 15.8376 19.7592 11.0001C19.7592 6.16249 15.8375 2.24086 10.9999 2.24086C6.16237 2.24086 2.24074 6.16249 2.24074 11.0001C2.24074 15.8376 6.16237 19.7593 10.9999 19.7593ZM19.36 11.0001C19.36 15.6172 15.6171 19.3601 10.9999 19.3601C6.38282 19.3601 2.63991 15.6172 2.63991 11.0001C2.63991 6.38295 6.38282 2.64003 10.9999 2.64003C15.6171 2.64003 19.36 6.38295 19.36 11.0001ZM10.9999 17.6194C14.6557 17.6194 17.6193 14.6558 17.6193 11.0001C17.6193 7.34433 14.6557 4.38077 10.9999 4.38077C7.3442 4.38077 4.38064 7.34433 4.38064 11.0001C4.38064 14.6558 7.34421 17.6194 10.9999 17.6194Z" fill="#DEE0E2"/>
<path fill-rule="evenodd" clip-rule="evenodd" d="M3.51076 11.0001C3.51076 6.86364 6.864 3.5104 11.0004 3.5104L11.0004 1.37049L10.9967 1.37049C5.68139 1.37251 1.37287 5.68103 1.37086 10.9963L1.37086 11.0001H3.51076Z" fill="#6F777B"/>
<path fill-rule="evenodd" clip-rule="evenodd" d="M3.88113 11.3704H1.00049L1.00049 10.9963C1.00258 5.47659 5.47681 1.00222 10.9966 1.00012L11.3708 1.00012V3.88077H11.0004C7.06855 3.88077 3.88113 7.06819 3.88113 11.0001V11.3704ZM3.14897 10.6297C3.33666 6.58343 6.58379 3.3363 10.6301 3.1486V1.74813C5.8109 1.93771 1.93807 5.81054 1.7485 10.6297H3.14897Z" fill="#6F777B"/>
<path fill-rule="evenodd" clip-rule="evenodd" d="M11.8708 0.500122V4.38077H11.0004C7.3447 4.38077 4.38113 7.34433 4.38113 11.0001V11.8704H0.500488L0.50049 10.9963C0.502686 5.20061 5.20062 0.502321 10.9964 0.500124L11.8708 0.500122ZM10.1301 2.68482V2.28353C5.98755 2.69207 2.69243 5.98719 2.2839 10.1297H2.68519C3.09104 6.2075 6.20786 3.09067 10.1301 2.68482Z" fill="#6F777B"/>
</svg>
